<?xml version="1.0" encoding="UTF-8" standalone="no"?><!DOCTYPE svg PUBLIC "-//W3C//DTD SVG 1.1//EN" "http://www.w3.org/Graphics/SVG/1.1/DTD/svg11.dtd"><svg width="100%" height="100%" viewBox="0 0 13684 4348" version="1.1" xmlns="http://www.w3.org/2000/svg" xmlns:xlink="http://www.w3.org/1999/xlink" xml:space="preserve" xmlns:serif="http://www.serif.com/" style="fill-rule:evenodd;clip-rule:evenodd;stroke-linecap:round;stroke-linejoin:round;stroke-miterlimit:1.5;"><rect id="Artboard10" x="0" y="0" width="13683.2" height="4347.35" style="fill:none;"/><g><g><path d="M1826.29,1213.21l-175.944,72.852" style="fill:none;stroke:#000;stroke-width:166.67px;"/><path d="M1806.62,1414.55l-68.314,-164.923" style="fill:none;stroke:#000;stroke-width:166.67px;"/></g><g><path d="M2540.25,1414.55l68.314,-164.923" style="fill:none;stroke:#000;stroke-width:166.67px;"/><path d="M2520.58,1213.21l175.944,72.852" style="fill:none;stroke:#000;stroke-width:166.67px;"/></g><g><path d="M1168.83,2499.51l72.851,175.944" style="fill:none;stroke:#000;stroke-width:166.67px;"/><path d="M1370.16,2519.17l-164.924,68.314" style="fill:none;stroke:#000;stroke-width:166.67px;"/></g><g><path d="M1168.83,1805.21l72.851,-175.944" style="fill:none;stroke:#000;stroke-width:166.67px;"/><path d="M1370.16,1785.55l-164.924,-68.313" style="fill:none;stroke:#000;stroke-width:166.67px;"/></g><g><path d="M3159.41,1805.21l-72.852,-175.944" style="fill:none;stroke:#000;stroke-width:166.67px;"/><path d="M2958.08,1785.55l164.923,-68.313" style="fill:none;stroke:#000;stroke-width:166.67px;"/></g><g><path d="M3159.41,2499.51l-72.852,175.944" style="fill:none;stroke:#000;stroke-width:166.67px;"/><path d="M2958.08,2519.17l164.923,68.314" style="fill:none;stroke:#000;stroke-width:166.67px;"/></g><g><path d="M1826.53,3135.7l-175.944,-72.851" style="fill:none;stroke:#000;stroke-width:166.67px;"/><path d="M1806.86,2934.36l-68.314,164.924" style="fill:none;stroke:#000;stroke-width:166.67px;"/></g></g><path d="M4018.47,3199.72l-0,-190.431" style="fill:none;stroke:#01a8df;stroke-width:166.67px;"/><g><path d="M664.492,2173.89l-344.422,-0.05" style="fill:none;stroke:#000;stroke-width:108.33px;"/><path d="M2173.68,674.891l0.104,-359.913" style="stroke:#000;stroke-width:108.33px;"/><path d="M659.056,1631.96l-236.174,-0.03" style="fill:none;stroke:#000;stroke-width:108.33px;"/><path d="M651.866,1058.34l-236.174,-0.03" style="fill:none;stroke:#000;stroke-width:108.33px;"/><path d="M217.32,1632.02c0.004,-56.717 46.048,-102.76 102.757,-102.756c56.71,0.004 102.747,46.054 102.743,102.771c-0.004,56.717 -46.048,102.76 -102.758,102.756c-56.709,-0.004 -102.747,-46.054 -102.742,-102.771Z" style="stroke:#000;stroke-width:62.5px;"/><path d="M224.18,2180.92c0.004,-56.717 46.048,-102.76 102.757,-102.756c56.71,0.004 102.747,46.054 102.743,102.771c-0.004,56.717 -46.048,102.76 -102.758,102.756c-56.709,-0.004 -102.747,-46.054 -102.742,-102.771Z" style="stroke:#000;stroke-width:62.5px;"/><path d="M217.32,1058.3c0.004,-56.717 46.048,-102.76 102.757,-102.756c56.71,0.004 102.747,46.055 102.743,102.771c-0.004,56.717 -46.048,102.761 -102.758,102.756c-56.709,-0.004 -102.747,-46.054 -102.742,-102.771Z" style="stroke:#000;stroke-width:62.5px;"/><path d="M3688.71,2645.07l236.174,-0.075" style="fill:none;stroke:#000;stroke-width:108.33px;"/><path d="M4119.34,2640.24c0.021,56.717 -46.003,102.78 -102.713,102.801c-56.709,0.021 -102.767,-46.008 -102.788,-102.725c-0.021,-56.717 46.003,-102.781 102.712,-102.802c56.71,-0.021 102.768,46.009 102.789,102.726Z" style="stroke:#000;stroke-width:62.5px;"/><path d="M2707.16,653.919l0.069,-236.205" style="fill:none;stroke:#000;stroke-width:108.33px;"/><path d="M2707.18,212.107c56.71,0.013 102.74,46.071 102.727,102.787c-0.014,56.717 -46.065,102.753 -102.775,102.74c-56.709,-0.013 -102.739,-46.071 -102.726,-102.788c0.013,-56.717 46.065,-102.753 102.774,-102.739Z" style="stroke:#000;stroke-width:62.5px;"/><path d="M2173.83,212.187c56.709,0.013 102.739,46.071 102.726,102.788c-0.013,56.716 -46.065,102.753 -102.774,102.739c-56.71,-0.013 -102.74,-46.071 -102.727,-102.787c0.014,-56.717 46.065,-102.753 102.775,-102.74Z" style="stroke:#000;stroke-width:62.5px;"/><path d="M1676.23,3658.72l-0.057,236.252" style="fill:none;stroke:#000;stroke-width:108.33px;"/><path d="M1674.49,4100.62c-56.709,-0.013 -102.739,-46.071 -102.726,-102.787c0.013,-56.717 46.065,-102.753 102.774,-102.74c56.71,0.013 102.74,46.071 102.726,102.788c-0.013,56.717 -46.064,102.753 -102.774,102.739Z" style="stroke:#000;stroke-width:62.5px;"/><path d="M3676.3,997.083c-0,-193.626 -157.179,-350.825 -350.779,-350.825l-2310.25,-0c-193.601,-0 -350.779,157.199 -350.779,350.825l-0,2310.55c-0,193.625 157.178,350.825 350.779,350.825l2310.25,-0c193.6,-0 350.779,-157.2 350.779,-350.825l-0,-2310.55Zm-112.98,40.79c0,-153.775 -124.829,-278.621 -278.585,-278.621l-2228.68,-0c-153.755,-0 -278.585,124.846 -278.585,278.621l-0,2228.97c-0,153.775 124.83,278.622 278.585,278.622l2228.68,-0c153.756,-0 278.585,-124.847 278.585,-278.622l0,-2228.97Z" style="stroke:#000;stroke-width:29.17px;"/></g><path d="M2101.53,3920.96c40.384,-39.824 105.498,-39.373 145.317,1.005c39.819,40.379 39.36,105.493 -1.024,145.317c-40.384,39.824 -105.498,39.373 -145.317,-1.005c-39.818,-40.379 -39.36,-105.493 1.024,-145.317Z" style="fill:#f9d009;stroke:#f9d009;stroke-width:75px;"/><path d="M4119.34,2175.69c0.021,56.716 -46.003,102.78 -102.713,102.801c-56.709,0.021 -102.767,-46.009 -102.788,-102.725c-0.021,-56.717 46.003,-102.781 102.712,-102.802c56.71,-0.021 102.768,46.009 102.789,102.726Z" style="fill:#f9d009;stroke:#f9d009;stroke-width:62.5px;"/><path d="M3179.18,212.107c56.71,0.013 102.74,46.071 102.727,102.787c-0.014,56.717 -46.065,102.753 -102.775,102.74c-56.709,-0.013 -102.739,-46.071 -102.726,-102.788c0.013,-56.717 46.065,-102.753 102.774,-102.739Z" style="fill:#ff32a5;stroke:#ff32a5;stroke-width:62.5px;"/><path d="M3175.73,722.126l0.121,-416.842" style="fill:none;stroke:#ff32a5;stroke-width:108.33px;"/><path d="M1214.49,4100.62c-56.709,-0.013 -102.739,-46.071 -102.726,-102.787c0.013,-56.717 46.065,-102.753 102.774,-102.74c56.71,0.013 102.74,46.071 102.726,102.788c-0.013,56.717 -46.064,102.753 -102.774,102.739Z" style="fill:#ff32a5;stroke:#ff32a5;stroke-width:62.5px;"/><path d="M2613.28,3110.11l1403.31,-0" style="fill:none;stroke:#01a8df;stroke-width:108.33px;"/><path d="M1211.13,3103.69l-0.259,894.171" style="fill:none;stroke:#ff32a5;stroke-width:108.33px;"/><path d="M3175.85,1138.97l-0,-416.841" style="fill:none;stroke:#ff32a5;stroke-width:108.33px;"/><path d="M2553.49,2965.75l47.694,115.146" style="fill:none;stroke:#01a8df;stroke-width:166.67px;"/><path d="M2598.96,2174.5l1417.63,-0.446" style="fill:none;stroke:#f9d009;stroke-width:108.33px;"/><path d="M1210.89,3103.69l1864.03,-1864.03" style="fill:none;stroke:#ff32a5;stroke-width:108.33px;"/><g><path d="M2170.4,1313.88c474.964,0 860.575,385.611 860.575,860.575c0,474.965 -385.611,860.575 -860.575,860.575c-474.964,0 -860.575,-385.61 -860.575,-860.575c0,-474.964 385.611,-860.575 860.575,-860.575Zm372.337,1295.12c69.998,0 126.827,56.83 126.827,126.827c0,69.998 -56.829,126.827 -126.827,126.827c-69.997,0 -126.827,-56.829 -126.827,-126.827c0,-69.997 56.83,-126.827 126.827,-126.827Zm-731.699,-427.023c91.074,0 165.015,73.941 165.015,165.015c-0,91.074 -73.941,165.014 -165.015,165.014c-91.074,0 -165.014,-73.94 -165.014,-165.014c-0,-91.074 73.94,-165.015 165.014,-165.015Zm786.371,-119.468c86.469,0 156.671,70.202 156.671,156.672c0,86.469 -70.202,156.671 -156.671,156.671c-86.469,-0 -156.671,-70.202 -156.671,-156.671c-0,-86.47 70.202,-156.672 156.671,-156.672Zm-237.288,-201.656c55.519,0 100.594,45.075 100.594,100.595c0,55.519 -45.075,100.594 -100.594,100.594c-55.52,-0 -100.595,-45.075 -100.595,-100.594c0,-55.52 45.075,-100.595 100.595,-100.595Z"/></g><path d="M2174.05,2602.24l-0.404,1395.62" style="fill:#fff;stroke:#f9d009;stroke-width:108.33px;"/><path d="M2404.16,1910.41l771.447,-771.448" style="fill:none;stroke:#ff32a5;stroke-width:108.33px;"/><path d="M2174.05,2598.59l424.914,-424.914" style="fill:none;stroke:#f9d009;stroke-width:108.33px;"/><g><g><path d="M4640.32,2203.97l0,336.026l512.84,0l-0,-336.026c-0,-48.004 10.801,-84.006 32.402,-108.008c21.602,-24.002 50.004,-36.003 85.207,-36.003c35.736,0 64.672,11.868 86.807,35.603c22.135,23.735 33.202,59.871 33.202,108.408l0,924.072c0,48.537 -11.2,84.807 -33.602,108.809c-22.402,24.001 -51.204,36.002 -86.407,36.002c-35.736,0 -64.272,-12.134 -85.607,-36.402c-21.335,-24.269 -32.002,-60.405 -32.002,-108.409l-0,-394.431l-512.84,0l0,394.431c0,48.537 -11.201,84.807 -33.603,108.809c-22.401,24.001 -51.204,36.002 -86.406,36.002c-35.736,0 -64.272,-12.134 -85.607,-36.402c-21.335,-24.269 -32.002,-60.405 -32.002,-108.409l-0,-924.072c-0,-48.004 10.534,-84.006 31.602,-108.008c21.068,-24.002 49.737,-36.003 86.007,-36.003c35.736,0 64.671,11.868 86.806,35.603c22.136,23.735 33.203,59.871 33.203,108.408Z" style="fill-rule:nonzero;stroke:#000;stroke-width:62.5px;stroke-linecap:butt;stroke-miterlimit:2;"/><path d="M6418.85,2263.18l-535.241,-0l-0,288.022l492.838,0c36.27,0 63.338,8.134 81.206,24.402c17.869,16.268 26.803,37.736 26.803,64.405c-0,26.669 -8.801,48.404 -26.403,65.205c-17.601,16.802 -44.803,25.202 -81.606,25.202l-492.838,0l-0,333.626l553.643,0c37.336,0 65.472,8.667 84.406,26.002c18.935,17.335 28.403,40.403 28.403,69.206c-0,27.735 -9.468,50.27 -28.403,67.605c-18.934,17.334 -47.07,26.002 -84.406,26.002l-645.65,-0c-51.738,-0 -88.941,-11.468 -111.609,-34.403c-22.668,-22.935 -34.003,-60.005 -34.003,-111.209l0,-881.668c0,-34.136 5.067,-62.005 15.201,-83.607c10.135,-21.601 26.003,-37.336 47.604,-47.203c21.602,-9.868 49.204,-14.801 82.807,-14.801l627.248,-0c37.87,-0 66.006,8.4 84.407,25.202c18.401,16.801 27.602,38.803 27.602,66.005c0,27.735 -9.201,50.004 -27.602,66.805c-18.401,16.801 -46.537,25.202 -84.407,25.202Z" style="fill-rule:nonzero;stroke:#000;stroke-width:62.5px;stroke-linecap:butt;stroke-miterlimit:2;"/><path d="M7738.16,2882.42c0,37.336 -9.201,77.739 -27.602,121.209c-18.402,43.47 -47.337,86.14 -86.807,128.01c-39.47,41.87 -89.873,75.873 -151.212,102.008c-61.338,26.136 -132.81,39.203 -214.416,39.203c-61.872,0 -118.143,-5.867 -168.813,-17.601c-50.671,-11.734 -96.675,-30.002 -138.011,-54.804c-41.337,-24.802 -79.34,-57.471 -114.009,-98.008c-30.936,-36.803 -57.338,-78.006 -79.206,-123.61c-21.869,-45.603 -38.27,-94.274 -49.204,-146.011c-10.934,-51.737 -16.401,-106.675 -16.401,-164.813c-0,-94.407 13.734,-178.947 41.203,-253.619c27.469,-74.673 66.805,-138.545 118.009,-191.615c51.204,-53.071 111.209,-93.474 180.014,-121.21c68.805,-27.735 142.145,-41.603 220.017,-41.603c94.941,0 179.481,18.935 253.62,56.804c74.139,37.87 130.943,84.674 170.413,140.411c39.47,55.738 59.205,108.409 59.205,158.013c-0,27.202 -9.601,51.204 -28.802,72.005c-19.202,20.802 -42.404,31.203 -69.606,31.203c-30.402,-0 -53.204,-7.201 -68.405,-21.602c-15.201,-14.401 -32.136,-39.203 -50.804,-74.406c-30.936,-58.138 -67.339,-101.608 -109.209,-130.41c-41.87,-28.802 -93.474,-43.203 -154.812,-43.203c-97.607,-0 -175.347,37.069 -233.218,111.208c-57.871,74.139 -86.807,179.481 -86.807,316.025c0,91.207 12.801,167.08 38.403,227.618c25.602,60.538 61.872,105.741 108.809,135.61c46.937,29.869 101.875,44.804 164.813,44.804c68.272,-0 126.01,-16.935 173.213,-50.804c47.204,-33.87 82.807,-83.607 106.809,-149.212c10.134,-30.936 22.668,-56.138 37.602,-75.606c14.935,-19.468 38.937,-29.202 72.006,-29.202c28.269,-0 52.537,9.867 72.806,29.602c20.268,19.735 30.402,44.27 30.402,73.606Z" style="fill-rule:nonzero;stroke:#000;stroke-width:62.5px;stroke-linecap:butt;stroke-miterlimit:2;"/></g><g><path d="M8452.56,3252.85l-358.4,-0c-51.733,-0 -88.667,-11.6 -110.8,-34.8c-22.133,-23.2 -33.2,-60.134 -33.2,-110.8l-0,-881.601c-0,-51.733 11.333,-88.933 34,-111.6c22.667,-22.667 59.333,-34 110,-34l380,-0c56,-0 104.534,3.467 145.6,10.4c41.067,6.933 77.867,20.267 110.4,40c27.734,16.533 52.267,37.467 73.601,62.8c21.333,25.333 37.6,53.333 48.8,84c11.2,30.667 16.8,63.067 16.8,97.2c-0,117.334 -58.667,203.2 -176.001,257.6c154.134,49.067 231.201,144.534 231.201,286.401c-0,65.6 -16.8,124.666 -50.4,177.2c-33.6,52.533 -78.934,91.333 -136,116.4c-35.734,14.933 -76.801,25.466 -123.201,31.6c-46.4,6.133 -100.533,9.2 -162.4,9.2Zm-17.6,-520.801l-247.2,0l0,342.401l255.2,-0c160.534,-0 240.8,-57.867 240.8,-173.6c0,-59.201 -20.8,-102.134 -62.4,-128.801c-41.6,-26.666 -103.733,-40 -186.4,-40Zm-247.2,-473.6l0,303.2l217.6,0c59.2,0 104.934,-5.6 137.2,-16.8c32.267,-11.2 56.934,-32.533 74,-64c13.334,-22.4 20,-47.467 20,-75.2c0,-59.2 -21.066,-98.533 -63.2,-118c-42.133,-19.467 -106.4,-29.2 -192.8,-29.2l-192.8,-0Z" style="fill-rule:nonzero;"/><path d="M9333.36,2508.85l0,631.201c0,43.733 -10.4,76.8 -31.2,99.2c-20.8,22.4 -47.2,33.6 -79.2,33.6c-32,-0 -58,-11.467 -78,-34.4c-20,-22.934 -30,-55.734 -30,-98.4l-0,-624.801c-0,-43.2 10,-75.733 30,-97.6c20,-21.867 46,-32.8 78,-32.8c32,0 58.4,10.933 79.2,32.8c20.8,21.867 31.2,52.267 31.2,91.2Zm-108,-225.6c-30.4,0 -56.4,-9.333 -78,-28c-21.6,-18.667 -32.4,-45.067 -32.4,-79.2c-0,-30.933 11.066,-56.4 33.2,-76.4c22.133,-20 47.867,-30 77.2,-30c28.267,-0 53.333,9.066 75.2,27.2c21.867,18.133 32.8,44.533 32.8,79.2c0,33.6 -10.667,59.867 -32,78.8c-21.333,18.933 -46.667,28.4 -76,28.4Z" style="fill-rule:nonzero;"/><path d="M10376.6,2828.85c-0,65.067 -10.133,125.067 -30.4,180.001c-20.267,54.933 -49.6,102.133 -88,141.6c-38.4,39.466 -84.267,69.733 -137.6,90.8c-53.334,21.066 -113.334,31.6 -180,31.6c-66.134,-0 -125.601,-10.667 -178.401,-32c-52.8,-21.334 -98.533,-51.867 -137.2,-91.6c-38.666,-39.734 -68,-86.667 -88,-140.8c-20,-54.134 -30,-114 -30,-179.601c0,-66.133 10.133,-126.666 30.4,-181.6c20.267,-54.933 49.334,-101.866 87.2,-140.8c37.867,-38.933 83.734,-68.933 137.6,-90c53.867,-21.067 113.334,-31.6 178.401,-31.6c66.133,0 126.133,10.667 180,32c53.866,21.333 100,51.733 138.4,91.2c38.4,39.467 67.6,86.4 87.6,140.8c20,54.4 30,114.4 30,180Zm-219.2,0c-0,-89.066 -19.6,-158.4 -58.8,-208c-39.2,-49.6 -91.867,-74.4 -158,-74.4c-42.667,0 -80.267,11.067 -112.801,33.2c-32.533,22.134 -57.6,54.8 -75.2,98c-17.6,43.2 -26.4,93.6 -26.4,151.2c0,57.067 8.667,106.934 26,149.601c17.334,42.666 42.134,75.333 74.4,98c32.267,22.666 70.267,34 114.001,34c66.133,-0 118.8,-24.934 158,-74.8c39.2,-49.867 58.8,-118.8 58.8,-206.801Z" style="fill-rule:nonzero;"/><path d="M11455,2900.85c-0,70.933 -18.267,134.666 -54.8,191.2c-36.534,56.533 -90,100.8 -160.4,132.8c-70.4,32 -153.867,48 -250.401,48c-115.733,-0 -211.2,-21.867 -286.4,-65.6c-53.333,-31.467 -96.667,-73.467 -130,-126c-33.333,-52.534 -50,-103.6 -50,-153.2c0,-28.8 10,-53.467 30,-74.001c20,-20.533 45.467,-30.8 76.4,-30.8c25.067,0 46.267,8 63.6,24c17.333,16 32.134,39.734 44.4,71.201c14.934,37.333 31.067,68.533 48.4,93.6c17.334,25.066 41.734,45.733 73.2,62c31.467,16.266 72.8,24.4 124,24.4c70.4,-0 127.6,-16.4 171.601,-49.2c44,-32.8 66,-73.734 66,-122.8c-0,-38.934 -11.867,-70.534 -35.6,-94.801c-23.734,-24.266 -54.4,-42.8 -92.001,-55.6c-37.6,-12.8 -87.866,-26.4 -150.8,-40.8c-84.266,-19.733 -154.8,-42.8 -211.6,-69.2c-56.8,-26.4 -101.867,-62.4 -135.2,-108c-33.333,-45.6 -50,-102.267 -50,-170c0,-64.533 17.6,-121.867 52.8,-172c35.2,-50.133 86.133,-88.667 152.8,-115.6c66.667,-26.934 145.067,-40.4 235.2,-40.4c72,-0 134.267,8.933 186.801,26.8c52.533,17.867 96.133,41.6 130.8,71.2c34.666,29.6 60,60.667 76,93.2c16,32.533 24,64.267 24,95.2c-0,28.267 -10,53.733 -30,76.4c-20,22.667 -44.934,34 -74.8,34c-27.2,0 -47.867,-6.8 -62,-20.4c-14.134,-13.6 -29.467,-35.867 -46,-66.8c-21.334,-44.267 -46.934,-78.8 -76.801,-103.6c-29.866,-24.8 -77.866,-37.2 -144,-37.2c-61.333,-0 -110.8,13.467 -148.4,40.4c-37.6,26.933 -56.4,59.333 -56.4,97.2c0,23.467 6.4,43.733 19.2,60.8c12.8,17.067 30.4,31.733 52.8,44c22.4,12.267 45.067,21.867 68,28.8c22.934,6.934 60.8,17.067 113.6,30.4c66.134,15.467 126.001,32.534 179.601,51.2c53.6,18.667 99.2,41.334 136.8,68c37.6,26.667 66.933,60.4 88,101.2c21.066,40.8 31.6,90.8 31.6,150.001Z" style="fill-rule:nonzero;"/><path d="M11859.8,2508.85l0,631.201c0,43.733 -10.4,76.8 -31.2,99.2c-20.8,22.4 -47.2,33.6 -79.2,33.6c-32,-0 -58,-11.467 -78,-34.4c-20,-22.934 -30,-55.734 -30,-98.4l-0,-624.801c-0,-43.2 10,-75.733 30,-97.6c20,-21.867 46,-32.8 78,-32.8c32,0 58.4,10.933 79.2,32.8c20.8,21.867 31.2,52.267 31.2,91.2Zm-108,-225.6c-30.4,0 -56.4,-9.333 -78,-28c-21.6,-18.667 -32.4,-45.067 -32.4,-79.2c-0,-30.933 11.067,-56.4 33.2,-76.4c22.133,-20 47.867,-30 77.2,-30c28.267,-0 53.333,9.066 75.2,27.2c21.867,18.133 32.8,44.533 32.8,79.2c0,33.6 -10.667,59.867 -32,78.8c-21.333,18.933 -46.667,28.4 -76,28.4Z" style="fill-rule:nonzero;"/><path d="M12811.8,2844.85l-0,290.401c-0,45.866 -10.4,80.266 -31.2,103.2c-20.8,22.933 -48.267,34.4 -82.4,34.4c-33.067,-0 -59.867,-11.467 -80.4,-34.4c-20.534,-22.934 -30.8,-57.334 -30.8,-103.2l-0,-348.001c-0,-54.933 -1.867,-97.6 -5.6,-128c-3.734,-30.4 -13.867,-55.333 -30.4,-74.8c-16.534,-19.466 -42.667,-29.2 -78.4,-29.2c-71.467,0 -118.534,24.534 -141.2,73.6c-22.667,49.067 -34.001,119.467 -34.001,211.2l0,295.201c0,45.333 -10.266,79.6 -30.8,102.8c-20.533,23.2 -47.6,34.8 -81.2,34.8c-33.066,-0 -60.133,-11.6 -81.2,-34.8c-21.066,-23.2 -31.6,-57.467 -31.6,-102.8l0,-624.801c0,-41.067 9.467,-72.267 28.4,-93.6c18.934,-21.333 43.867,-32 74.8,-32c29.867,0 54.8,10 74.8,30c20,20 30,47.6 30,82.8l0,20.8c37.867,-45.333 78.401,-78.667 121.601,-100c43.2,-21.333 91.2,-32 144,-32c54.933,0 102.133,10.933 141.6,32.8c39.467,21.867 72,54.933 97.6,99.2c36.8,-44.8 76.267,-78 118.4,-99.6c42.133,-21.6 88.8,-32.4 140,-32.4c59.734,0 111.2,11.733 154.4,35.2c43.2,23.467 75.467,57.067 96.8,100.8c18.667,39.467 28,101.6 28,186.4l0,426.401c0,45.866 -10.4,80.266 -31.2,103.2c-20.8,22.933 -48.266,34.4 -82.4,34.4c-33.066,-0 -60.133,-11.6 -81.2,-34.8c-21.066,-23.2 -31.6,-57.467 -31.6,-102.8l0,-367.201c0,-46.933 -2,-84.533 -6,-112.8c-4,-28.266 -14.8,-52 -32.4,-71.2c-17.6,-19.2 -44.267,-28.8 -80,-28.8c-28.8,0 -56.133,8.534 -82,25.6c-25.867,17.067 -46,40 -60.4,68.8c-16,36.8 -24,101.867 -24,195.2Z" style="fill-rule:nonzero;"/></g></g></svg>