<?xml version="1.0" encoding="UTF-8" standalone="no"?><!DOCTYPE svg PUBLIC "-//W3C//DTD SVG 1.1//EN" "http://www.w3.org/Graphics/SVG/1.1/DTD/svg11.dtd"><svg width="100%" height="100%" viewBox="0 0 13680 4348" version="1.1" xmlns="http://www.w3.org/2000/svg" xmlns:xlink="http://www.w3.org/1999/xlink" xml:space="preserve" xmlns:serif="http://www.serif.com/" style="fill-rule:evenodd;clip-rule:evenodd;stroke-linecap:round;stroke-linejoin:round;stroke-miterlimit:1.5;"><rect id="Artboard9" x="0" y="0" width="13679.9" height="4347.35" style="fill:none;"/><g><g><path d="M1826.29,1213.21l-175.944,72.852" style="fill:none;stroke:#fff;stroke-width:166.67px;"/><path d="M1806.62,1414.55l-68.314,-164.923" style="fill:none;stroke:#fff;stroke-width:166.67px;"/></g><g><path d="M2540.25,1414.55l68.314,-164.923" style="fill:none;stroke:#fff;stroke-width:166.67px;"/><path d="M2520.58,1213.21l175.944,72.852" style="fill:none;stroke:#fff;stroke-width:166.67px;"/></g><g><path d="M1168.83,2499.51l72.851,175.944" style="fill:none;stroke:#fff;stroke-width:166.67px;"/><path d="M1370.16,2519.17l-164.924,68.314" style="fill:none;stroke:#fff;stroke-width:166.67px;"/></g><g><path d="M1168.83,1805.21l72.851,-175.944" style="fill:none;stroke:#fff;stroke-width:166.67px;"/><path d="M1370.16,1785.55l-164.924,-68.313" style="fill:none;stroke:#fff;stroke-width:166.67px;"/></g><g><path d="M3159.41,1805.21l-72.852,-175.944" style="fill:none;stroke:#fff;stroke-width:166.67px;"/><path d="M2958.08,1785.55l164.923,-68.313" style="fill:none;stroke:#fff;stroke-width:166.67px;"/></g><g><path d="M3159.41,2499.51l-72.852,175.944" style="fill:none;stroke:#fff;stroke-width:166.67px;"/><path d="M2958.08,2519.17l164.923,68.314" style="fill:none;stroke:#fff;stroke-width:166.67px;"/></g><g><path d="M1826.53,3135.7l-175.944,-72.851" style="fill:none;stroke:#fff;stroke-width:166.67px;"/><path d="M1806.86,2934.36l-68.314,164.924" style="fill:none;stroke:#fff;stroke-width:166.67px;"/></g></g><path d="M4018.47,3199.72l-0,-190.431" style="fill:none;stroke:#01a8df;stroke-width:166.67px;"/><g><path d="M664.492,2173.89l-344.422,-0.05" style="fill:none;stroke:#fff;stroke-width:108.33px;"/><path d="M2173.68,674.891l0.104,-359.913" style="fill:#fff;stroke:#fff;stroke-width:108.33px;"/><path d="M659.056,1631.96l-236.174,-0.03" style="fill:none;stroke:#fff;stroke-width:108.33px;"/><path d="M651.866,1058.34l-236.174,-0.03" style="fill:none;stroke:#fff;stroke-width:108.33px;"/><path d="M217.32,1632.02c0.004,-56.717 46.048,-102.76 102.757,-102.756c56.71,0.004 102.747,46.054 102.743,102.771c-0.004,56.717 -46.048,102.76 -102.758,102.756c-56.709,-0.004 -102.747,-46.054 -102.742,-102.771Z" style="fill:#fff;stroke:#fff;stroke-width:62.5px;"/><path d="M224.18,2180.92c0.004,-56.717 46.048,-102.76 102.757,-102.756c56.71,0.004 102.747,46.054 102.743,102.771c-0.004,56.717 -46.048,102.76 -102.758,102.756c-56.709,-0.004 -102.747,-46.054 -102.742,-102.771Z" style="fill:#fff;stroke:#fff;stroke-width:62.5px;"/><path d="M217.32,1058.3c0.004,-56.717 46.048,-102.76 102.757,-102.756c56.71,0.004 102.747,46.055 102.743,102.771c-0.004,56.717 -46.048,102.761 -102.758,102.756c-56.709,-0.004 -102.747,-46.054 -102.742,-102.771Z" style="fill:#fff;stroke:#fff;stroke-width:62.5px;"/><path d="M3688.71,2645.07l236.174,-0.075" style="fill:none;stroke:#fff;stroke-width:108.33px;"/><path d="M4119.34,2640.24c0.021,56.717 -46.003,102.78 -102.713,102.801c-56.709,0.021 -102.767,-46.008 -102.788,-102.725c-0.021,-56.717 46.003,-102.781 102.712,-102.802c56.71,-0.021 102.768,46.009 102.789,102.726Z" style="fill:#fff;stroke:#fff;stroke-width:62.5px;"/><path d="M2707.16,653.919l0.069,-236.205" style="fill:none;stroke:#fff;stroke-width:108.33px;"/><path d="M2707.18,212.107c56.71,0.013 102.74,46.071 102.727,102.787c-0.014,56.717 -46.065,102.753 -102.775,102.74c-56.709,-0.013 -102.739,-46.071 -102.726,-102.788c0.013,-56.717 46.065,-102.753 102.774,-102.739Z" style="fill:#fff;stroke:#fff;stroke-width:62.5px;"/><path d="M2173.83,212.187c56.709,0.013 102.739,46.071 102.726,102.788c-0.013,56.716 -46.065,102.753 -102.774,102.739c-56.71,-0.013 -102.74,-46.071 -102.727,-102.787c0.014,-56.717 46.065,-102.753 102.775,-102.74Z" style="fill:#fff;stroke:#fff;stroke-width:62.5px;"/><path d="M1676.23,3658.72l-0.057,236.252" style="fill:none;stroke:#fff;stroke-width:108.33px;"/><path d="M1674.49,4100.62c-56.709,-0.013 -102.739,-46.071 -102.726,-102.787c0.013,-56.717 46.065,-102.753 102.774,-102.74c56.71,0.013 102.74,46.071 102.726,102.788c-0.013,56.717 -46.064,102.753 -102.774,102.739Z" style="fill:#fff;stroke:#fff;stroke-width:62.5px;"/><path d="M3676.3,997.083c-0,-193.626 -157.179,-350.825 -350.779,-350.825l-2310.25,-0c-193.601,-0 -350.779,157.199 -350.779,350.825l-0,2310.55c-0,193.625 157.178,350.825 350.779,350.825l2310.25,-0c193.6,-0 350.779,-157.2 350.779,-350.825l-0,-2310.55Zm-112.98,40.79c0,-153.775 -124.829,-278.621 -278.585,-278.621l-2228.68,-0c-153.755,-0 -278.585,124.846 -278.585,278.621l-0,2228.97c-0,153.775 124.83,278.622 278.585,278.622l2228.68,-0c153.756,-0 278.585,-124.847 278.585,-278.622l0,-2228.97Z" style="fill:#fff;stroke:#fff;stroke-width:29.17px;"/></g><path d="M2101.53,3920.96c40.384,-39.824 105.498,-39.373 145.317,1.005c39.819,40.379 39.36,105.493 -1.024,145.317c-40.384,39.824 -105.498,39.373 -145.317,-1.005c-39.818,-40.379 -39.36,-105.493 1.024,-145.317Z" style="fill:#f9d009;stroke:#f9d009;stroke-width:75px;"/><path d="M4119.34,2175.69c0.021,56.716 -46.003,102.78 -102.713,102.801c-56.709,0.021 -102.767,-46.009 -102.788,-102.725c-0.021,-56.717 46.003,-102.781 102.712,-102.802c56.71,-0.021 102.768,46.009 102.789,102.726Z" style="fill:#f9d009;stroke:#f9d009;stroke-width:62.5px;"/><path d="M3179.18,212.107c56.71,0.013 102.74,46.071 102.727,102.787c-0.014,56.717 -46.065,102.753 -102.775,102.74c-56.709,-0.013 -102.739,-46.071 -102.726,-102.788c0.013,-56.717 46.065,-102.753 102.774,-102.739Z" style="fill:#ff32a5;stroke:#ff32a5;stroke-width:62.5px;"/><path d="M3175.73,722.126l0.121,-416.842" style="fill:none;stroke:#ff32a5;stroke-width:108.33px;"/><path d="M1214.49,4100.62c-56.709,-0.013 -102.739,-46.071 -102.726,-102.787c0.013,-56.717 46.065,-102.753 102.774,-102.74c56.71,0.013 102.74,46.071 102.726,102.788c-0.013,56.717 -46.064,102.753 -102.774,102.739Z" style="fill:#ff32a5;stroke:#ff32a5;stroke-width:62.5px;"/><path d="M2613.28,3110.11l1403.31,-0" style="fill:none;stroke:#01a8df;stroke-width:108.33px;"/><path d="M1211.13,3103.69l-0.259,894.171" style="fill:none;stroke:#ff32a5;stroke-width:108.33px;"/><path d="M3175.85,1138.97l-0,-416.841" style="fill:none;stroke:#ff32a5;stroke-width:108.33px;"/><path d="M2553.49,2965.75l47.694,115.146" style="fill:none;stroke:#01a8df;stroke-width:166.67px;"/><path d="M2598.96,2174.5l1417.63,-0.446" style="fill:none;stroke:#f9d009;stroke-width:108.33px;"/><path d="M1210.89,3103.69l1864.03,-1864.03" style="fill:none;stroke:#ff32a5;stroke-width:108.33px;"/><g><path d="M2170.4,1313.88c474.964,0 860.575,385.611 860.575,860.575c0,474.965 -385.611,860.575 -860.575,860.575c-474.964,0 -860.575,-385.61 -860.575,-860.575c0,-474.964 385.611,-860.575 860.575,-860.575Zm372.337,1295.12c69.998,0 126.827,56.83 126.827,126.827c0,69.998 -56.829,126.827 -126.827,126.827c-69.997,0 -126.827,-56.829 -126.827,-126.827c0,-69.997 56.83,-126.827 126.827,-126.827Zm-731.699,-427.023c91.074,0 165.015,73.941 165.015,165.015c-0,91.074 -73.941,165.014 -165.015,165.014c-91.074,0 -165.014,-73.94 -165.014,-165.014c-0,-91.074 73.94,-165.015 165.014,-165.015Zm786.371,-119.468c86.469,0 156.671,70.202 156.671,156.672c0,86.469 -70.202,156.671 -156.671,156.671c-86.469,-0 -156.671,-70.202 -156.671,-156.671c-0,-86.47 70.202,-156.672 156.671,-156.672Zm-237.288,-201.656c55.519,0 100.594,45.075 100.594,100.595c0,55.519 -45.075,100.594 -100.594,100.594c-55.52,-0 -100.595,-45.075 -100.595,-100.594c0,-55.52 45.075,-100.595 100.595,-100.595Z" style="fill:#fff;"/></g><path d="M2174.05,2602.24l-0.404,1395.62" style="fill:#fff;stroke:#f9d009;stroke-width:108.33px;"/><path d="M2404.16,1910.41l771.447,-771.448" style="fill:none;stroke:#ff32a5;stroke-width:108.33px;"/><path d="M2174.05,2598.59l424.914,-424.914" style="fill:none;stroke:#f9d009;stroke-width:108.33px;"/><g><g><path d="M4637.04,2206.15l0,336.026l512.84,-0l0,-336.026c0,-48.004 10.801,-84.007 32.403,-108.009c21.602,-24.002 50.004,-36.003 85.206,-36.003c35.737,0 64.672,11.868 86.807,35.603c22.135,23.735 33.203,59.871 33.203,108.409l-0,924.071c-0,48.538 -11.201,84.807 -33.603,108.809c-22.402,24.002 -51.204,36.003 -86.407,36.003c-35.736,-0 -64.271,-12.135 -85.606,-36.403c-21.335,-24.269 -32.003,-60.405 -32.003,-108.409l0,-394.43l-512.84,-0l0,394.43c0,48.538 -11.2,84.807 -33.602,108.809c-22.402,24.002 -51.204,36.003 -86.407,36.003c-35.736,-0 -64.272,-12.135 -85.607,-36.403c-21.335,-24.269 -32.002,-60.405 -32.002,-108.409l-0,-924.071c-0,-48.004 10.534,-84.007 31.602,-108.009c21.069,-24.002 49.738,-36.003 86.007,-36.003c35.736,0 64.672,11.868 86.807,35.603c22.135,23.735 33.202,59.871 33.202,108.409Z" style="fill:#fff;fill-rule:nonzero;stroke:#fff;stroke-width:62.5px;stroke-linecap:butt;stroke-miterlimit:2;"/><path d="M6415.58,2265.36l-535.242,0l0,288.023l492.839,-0c36.269,-0 63.338,8.134 81.206,24.401c17.868,16.268 26.802,37.737 26.802,64.405c-0,26.669 -8.801,48.404 -26.402,65.206c-17.602,16.801 -44.804,25.202 -81.606,25.202l-492.839,-0l0,333.625l553.643,0c37.336,0 65.472,8.668 84.407,26.003c18.935,17.334 28.402,40.403 28.402,69.205c0,27.735 -9.467,50.27 -28.402,67.605c-18.935,17.335 -47.071,26.002 -84.407,26.002l-645.65,0c-51.737,0 -88.94,-11.467 -111.609,-34.403c-22.668,-22.935 -34.002,-60.004 -34.002,-111.208l-0,-881.669c-0,-34.136 5.067,-62.005 15.201,-83.606c10.134,-21.602 26.002,-37.336 47.604,-47.204c21.601,-9.867 49.203,-14.801 82.806,-14.801l627.249,-0c37.869,-0 66.005,8.401 84.406,25.202c18.402,16.801 27.603,38.803 27.603,66.005c-0,27.736 -9.201,50.004 -27.603,66.805c-18.401,16.802 -46.537,25.202 -84.406,25.202Z" style="fill:#fff;fill-rule:nonzero;stroke:#fff;stroke-width:62.5px;stroke-linecap:butt;stroke-miterlimit:2;"/><path d="M7734.88,2884.61c0,37.337 -9.2,77.74 -27.602,121.21c-18.401,43.47 -47.337,86.14 -86.806,128.01c-39.47,41.87 -89.874,75.872 -151.212,102.008c-61.338,26.135 -132.811,39.203 -214.417,39.203c-61.871,-0 -118.142,-5.867 -168.813,-17.602c-50.671,-11.734 -96.674,-30.002 -138.011,-54.804c-41.336,-24.802 -79.339,-57.471 -114.009,-98.008c-30.935,-36.802 -57.337,-78.006 -79.206,-123.609c-21.868,-45.604 -38.269,-94.274 -49.204,-146.012c-10.934,-51.737 -16.401,-106.674 -16.401,-164.812c0,-94.408 13.734,-178.948 41.203,-253.62c27.469,-74.673 66.805,-138.544 118.009,-191.615c51.204,-53.071 111.209,-93.474 180.014,-121.209c68.806,-27.736 142.145,-41.604 220.018,-41.604c94.94,0 179.48,18.935 253.619,56.805c74.139,37.869 130.944,84.673 170.414,140.411c39.469,55.737 59.204,108.408 59.204,158.012c0,27.202 -9.601,51.204 -28.802,72.006c-19.202,20.801 -42.403,31.202 -69.605,31.202c-30.403,0 -53.205,-7.201 -68.406,-21.602c-15.201,-14.401 -32.136,-39.203 -50.804,-74.405c-30.935,-58.138 -67.338,-101.608 -109.208,-130.411c-41.87,-28.802 -93.474,-43.203 -154.812,-43.203c-97.608,0 -175.347,37.07 -233.218,111.209c-57.872,74.139 -86.807,179.48 -86.807,316.024c-0,91.207 12.801,167.08 38.403,227.618c25.602,60.538 61.871,105.742 108.808,135.611c46.937,29.869 101.875,44.803 164.813,44.803c68.272,0 126.01,-16.935 173.214,-50.804c47.203,-33.869 82.806,-83.606 106.808,-149.212c10.134,-30.935 22.668,-56.137 37.603,-75.605c14.934,-19.469 38.936,-29.203 72.005,-29.203c28.269,0 52.538,9.868 72.806,29.603c20.268,19.734 30.402,44.27 30.402,73.605Z" style="fill:#fff;fill-rule:nonzero;stroke:#fff;stroke-width:62.5px;stroke-linecap:butt;stroke-miterlimit:2;"/></g><g><path d="M8449.29,3255.03l-358.401,0c-51.733,0 -88.666,-11.6 -110.8,-34.8c-22.133,-23.2 -33.2,-60.133 -33.2,-110.8l0,-881.601c0,-51.733 11.334,-88.933 34,-111.6c22.667,-22.666 59.334,-34 110,-34l380.001,0c56,0 104.533,3.467 145.6,10.4c41.066,6.934 77.867,20.267 110.4,40c27.733,16.534 52.267,37.467 73.6,62.8c21.333,25.334 37.6,53.334 48.8,84c11.2,30.667 16.8,63.067 16.8,97.2c-0,117.334 -58.667,203.201 -176,257.601c154.133,49.066 231.2,144.533 231.2,286.4c0,65.6 -16.8,124.667 -50.4,177.2c-33.6,52.533 -78.933,91.333 -136,116.4c-35.733,14.933 -76.8,25.467 -123.2,31.6c-46.4,6.133 -100.534,9.2 -162.4,9.2Zm-17.6,-520.8l-247.201,-0l0,342.4l255.201,0c160.533,0 240.8,-57.867 240.8,-173.6c-0,-59.2 -20.8,-102.134 -62.4,-128.8c-41.6,-26.667 -103.734,-40 -186.4,-40Zm-247.201,-473.601l0,303.201l217.601,-0c59.2,-0 104.933,-5.6 137.2,-16.8c32.266,-11.2 56.933,-32.534 74,-64c13.333,-22.401 20,-47.467 20,-75.201c-0,-59.2 -21.067,-98.533 -63.2,-118c-42.134,-19.466 -106.4,-29.2 -192.8,-29.2l-192.801,0Z" style="fill:#fff;fill-rule:nonzero;"/><path d="M9330.09,2511.03l0,631.2c0,43.733 -10.4,76.8 -31.2,99.2c-20.8,22.4 -47.2,33.6 -79.2,33.6c-32,0 -58,-11.466 -78,-34.4c-20,-22.933 -30,-55.733 -30,-98.4l0,-624.8c0,-43.2 10,-75.734 30,-97.601c20,-21.866 46,-32.8 78,-32.8c32,0 58.4,10.934 79.2,32.8c20.8,21.867 31.2,52.267 31.2,91.201Zm-108,-225.601c-30.4,0 -56.4,-9.333 -78,-28c-21.6,-18.666 -32.4,-45.066 -32.4,-79.2c0,-30.933 11.067,-56.4 33.2,-76.4c22.134,-20 47.867,-30 77.2,-30c28.267,0 53.334,9.067 75.2,27.2c21.867,18.134 32.8,44.534 32.8,79.2c0,33.6 -10.666,59.867 -32,78.8c-21.333,18.934 -46.666,28.4 -76,28.4Z" style="fill:#fff;fill-rule:nonzero;"/><path d="M10373.3,2831.03c0,65.067 -10.133,125.067 -30.4,180c-20.266,54.933 -49.6,102.133 -88,141.6c-38.4,39.467 -84.267,69.733 -137.6,90.8c-53.333,21.067 -113.333,31.6 -180,31.6c-66.134,0 -125.6,-10.666 -178.4,-32c-52.8,-21.333 -98.534,-51.867 -137.2,-91.6c-38.667,-39.733 -68,-86.667 -88,-140.8c-20,-54.133 -30,-114 -30,-179.6c-0,-66.134 10.133,-126.667 30.4,-181.6c20.266,-54.934 49.333,-101.867 87.2,-140.8c37.866,-38.934 83.733,-68.934 137.6,-90.001c53.866,-21.066 113.333,-31.6 178.4,-31.6c66.133,0 126.133,10.667 180,32c53.867,21.334 100,51.734 138.4,91.201c38.4,39.466 67.6,86.4 87.6,140.8c20,54.4 30,114.4 30,180Zm-219.2,-0c0,-89.067 -19.6,-158.4 -58.8,-208c-39.2,-49.6 -91.867,-74.4 -158,-74.4c-42.667,-0 -80.267,11.066 -112.8,33.2c-32.534,22.133 -57.6,54.8 -75.2,98c-17.6,43.2 -26.4,93.6 -26.4,151.2c-0,57.067 8.666,106.933 26,149.6c17.333,42.667 42.133,75.333 74.4,98c32.266,22.667 70.267,34 114,34c66.133,0 118.8,-24.933 158,-74.8c39.2,-49.867 58.8,-118.8 58.8,-206.8Z" style="fill:#fff;fill-rule:nonzero;"/><path d="M11451.7,2903.03c0,70.933 -18.267,134.667 -54.8,191.2c-36.533,56.533 -90,100.8 -160.4,132.8c-70.4,32 -153.867,48 -250.4,48c-115.734,0 -211.2,-21.867 -286.4,-65.6c-53.334,-31.467 -96.667,-73.467 -130.001,-126c-33.333,-52.533 -50,-103.6 -50,-153.2c0,-28.8 10,-53.467 30,-74c20,-20.534 45.467,-30.8 76.4,-30.8c25.067,-0 46.267,8 63.601,24c17.333,16 32.133,39.733 44.4,71.2c14.933,37.333 31.066,68.533 48.4,93.6c17.333,25.067 41.733,45.733 73.2,62c31.466,16.267 72.8,24.4 124,24.4c70.4,0 127.6,-16.4 171.6,-49.2c44,-32.8 66,-73.733 66,-122.8c-0,-38.933 -11.867,-70.533 -35.6,-94.8c-23.733,-24.267 -54.4,-42.8 -92,-55.6c-37.6,-12.8 -87.867,-26.4 -150.8,-40.8c-84.267,-19.734 -154.8,-42.8 -211.6,-69.2c-56.801,-26.4 -101.867,-62.4 -135.201,-108c-33.333,-45.6 -50,-102.267 -50,-170.001c0,-64.533 17.6,-121.866 52.8,-172c35.2,-50.133 86.134,-88.666 152.801,-115.6c66.666,-26.933 145.066,-40.4 235.2,-40.4c72,0 134.267,8.934 186.8,26.8c52.533,17.867 96.133,41.6 130.8,71.2c34.667,29.6 60,60.667 76,93.2c16,32.534 24,64.267 24,95.2c0,28.267 -10,53.734 -30,76.4c-20,22.667 -44.933,34 -74.8,34c-27.2,0 -47.867,-6.8 -62,-20.4c-14.133,-13.6 -29.467,-35.866 -46,-66.8c-21.333,-44.266 -46.933,-78.8 -76.8,-103.6c-29.867,-24.8 -77.867,-37.2 -144,-37.2c-61.334,0 -110.8,13.467 -148.4,40.4c-37.6,26.934 -56.4,59.334 -56.4,97.2c-0,23.467 6.4,43.734 19.2,60.8c12.8,17.067 30.4,31.734 52.8,44.001c22.4,12.266 45.066,21.866 68,28.8c22.933,6.933 60.8,17.066 113.6,30.4c66.133,15.466 126,32.533 179.6,51.2c53.6,18.666 99.2,41.333 136.8,68c37.6,26.666 66.933,60.4 88,101.2c21.067,40.8 31.6,90.8 31.6,150Z" style="fill:#fff;fill-rule:nonzero;"/><path d="M11856.5,2511.03l0,631.2c0,43.733 -10.4,76.8 -31.2,99.2c-20.8,22.4 -47.2,33.6 -79.2,33.6c-32,0 -58,-11.466 -78,-34.4c-20,-22.933 -30,-55.733 -30,-98.4l0,-624.8c0,-43.2 10,-75.734 30,-97.601c20,-21.866 46,-32.8 78,-32.8c32,0 58.4,10.934 79.2,32.8c20.8,21.867 31.2,52.267 31.2,91.201Zm-108,-225.601c-30.4,0 -56.4,-9.333 -78,-28c-21.6,-18.666 -32.4,-45.066 -32.4,-79.2c0,-30.933 11.067,-56.4 33.2,-76.4c22.134,-20 47.867,-30 77.2,-30c28.267,0 53.334,9.067 75.2,27.2c21.867,18.134 32.8,44.534 32.8,79.2c0,33.6 -10.666,59.867 -32,78.8c-21.333,18.934 -46.666,28.4 -76,28.4Z" style="fill:#fff;fill-rule:nonzero;"/><path d="M12808.5,2847.03l0,290.4c0,45.867 -10.4,80.267 -31.2,103.2c-20.8,22.934 -48.266,34.4 -82.4,34.4c-33.066,0 -59.867,-11.466 -80.4,-34.4c-20.533,-22.933 -30.8,-57.333 -30.8,-103.2l0,-348c0,-54.934 -1.867,-97.6 -5.6,-128c-3.733,-30.4 -13.867,-55.334 -30.4,-74.8c-16.533,-19.467 -42.667,-29.2 -78.4,-29.2c-71.467,-0 -118.533,24.533 -141.2,73.6c-22.667,49.066 -34,119.466 -34,211.2l-0,295.2c-0,45.333 -10.267,79.6 -30.8,102.8c-20.534,23.2 -47.6,34.8 -81.2,34.8c-33.067,0 -60.134,-11.6 -81.2,-34.8c-21.067,-23.2 -31.6,-57.467 -31.6,-102.8l-0,-624.8c-0,-41.067 9.466,-72.267 28.4,-93.601c18.933,-21.333 43.866,-32 74.8,-32c29.866,0 54.8,10 74.8,30c20,20 30,47.601 30,82.801l-0,20.8c37.867,-45.334 78.4,-78.667 121.6,-100.001c43.2,-21.333 91.2,-32 144,-32c54.933,0 102.133,10.934 141.6,32.8c39.467,21.867 72,54.934 97.6,99.201c36.8,-44.8 76.267,-78.001 118.4,-99.601c42.134,-21.6 88.8,-32.4 140,-32.4c59.734,0 111.201,11.734 154.401,35.2c43.2,23.467 75.466,57.067 96.8,100.801c18.666,39.466 28,101.6 28,186.4l-0,426.4c-0,45.867 -10.4,80.267 -31.2,103.2c-20.8,22.934 -48.267,34.4 -82.4,34.4c-33.067,0 -60.134,-11.6 -81.2,-34.8c-21.067,-23.2 -31.6,-57.467 -31.6,-102.8l-0,-367.2c-0,-46.934 -2,-84.534 -6,-112.8c-4,-28.267 -14.8,-52 -32.401,-71.2c-17.6,-19.2 -44.266,-28.8 -80,-28.8c-28.8,-0 -56.133,8.533 -82,25.6c-25.866,17.066 -46,40 -60.4,68.8c-16,36.8 -24,101.866 -24,195.2Z" style="fill:#fff;fill-rule:nonzero;"/></g></g></svg>