<?xml version="1.0" encoding="UTF-8" standalone="no"?><!DOCTYPE svg PUBLIC "-//W3C//DTD SVG 1.1//EN" "http://www.w3.org/Graphics/SVG/1.1/DTD/svg11.dtd"><svg width="100%" height="100%" viewBox="0 0 4348 4348" version="1.1" xmlns="http://www.w3.org/2000/svg" xmlns:xlink="http://www.w3.org/1999/xlink" xml:space="preserve" xmlns:serif="http://www.serif.com/" style="fill-rule:evenodd;clip-rule:evenodd;stroke-linecap:round;stroke-linejoin:round;stroke-miterlimit:1.5;"><rect id="Artboard8" x="0" y="0" width="4347.35" height="4347.35" style="fill:none;"/><g><g><path d="M1826.29,1213.21l-175.944,72.852" style="fill:none;stroke:#000;stroke-width:166.67px;"/><path d="M1806.62,1414.55l-68.314,-164.923" style="fill:none;stroke:#000;stroke-width:166.67px;"/></g><g><path d="M2540.25,1414.55l68.314,-164.923" style="fill:none;stroke:#000;stroke-width:166.67px;"/><path d="M2520.58,1213.21l175.944,72.852" style="fill:none;stroke:#000;stroke-width:166.67px;"/></g><g><path d="M1168.83,2499.51l72.851,175.944" style="fill:none;stroke:#000;stroke-width:166.67px;"/><path d="M1370.16,2519.17l-164.924,68.314" style="fill:none;stroke:#000;stroke-width:166.67px;"/></g><g><path d="M1168.83,1805.21l72.851,-175.944" style="fill:none;stroke:#000;stroke-width:166.67px;"/><path d="M1370.16,1785.55l-164.924,-68.313" style="fill:none;stroke:#000;stroke-width:166.67px;"/></g><g><path d="M3159.41,1805.21l-72.852,-175.944" style="fill:none;stroke:#000;stroke-width:166.67px;"/><path d="M2958.08,1785.55l164.923,-68.313" style="fill:none;stroke:#000;stroke-width:166.67px;"/></g><g><path d="M3159.41,2499.51l-72.852,175.944" style="fill:none;stroke:#000;stroke-width:166.67px;"/><path d="M2958.08,2519.17l164.923,68.314" style="fill:none;stroke:#000;stroke-width:166.67px;"/></g><g><path d="M1826.53,3135.7l-175.944,-72.851" style="fill:none;stroke:#000;stroke-width:166.67px;"/><path d="M1806.86,2934.36l-68.314,164.924" style="fill:none;stroke:#000;stroke-width:166.67px;"/></g></g><path d="M4018.47,3199.72l-0,-190.431" style="fill:none;stroke:#01a8df;stroke-width:166.67px;"/><g><path d="M664.492,2173.89l-344.422,-0.05" style="fill:none;stroke:#000;stroke-width:108.33px;"/><path d="M2173.68,674.891l0.104,-359.913" style="stroke:#000;stroke-width:108.33px;"/><path d="M659.056,1631.96l-236.174,-0.03" style="fill:none;stroke:#000;stroke-width:108.33px;"/><path d="M651.866,1058.34l-236.174,-0.03" style="fill:none;stroke:#000;stroke-width:108.33px;"/><path d="M217.32,1632.02c0.004,-56.717 46.048,-102.76 102.757,-102.756c56.71,0.004 102.747,46.054 102.743,102.771c-0.004,56.717 -46.048,102.76 -102.758,102.756c-56.709,-0.004 -102.747,-46.054 -102.742,-102.771Z" style="stroke:#000;stroke-width:62.5px;"/><path d="M224.18,2180.92c0.004,-56.717 46.048,-102.76 102.757,-102.756c56.71,0.004 102.747,46.054 102.743,102.771c-0.004,56.717 -46.048,102.76 -102.758,102.756c-56.709,-0.004 -102.747,-46.054 -102.742,-102.771Z" style="stroke:#000;stroke-width:62.5px;"/><path d="M217.32,1058.3c0.004,-56.717 46.048,-102.76 102.757,-102.756c56.71,0.004 102.747,46.055 102.743,102.771c-0.004,56.717 -46.048,102.761 -102.758,102.756c-56.709,-0.004 -102.747,-46.054 -102.742,-102.771Z" style="stroke:#000;stroke-width:62.5px;"/><path d="M3688.71,2645.07l236.174,-0.075" style="fill:none;stroke:#000;stroke-width:108.33px;"/><path d="M4119.34,2640.24c0.021,56.717 -46.003,102.78 -102.713,102.801c-56.709,0.021 -102.767,-46.008 -102.788,-102.725c-0.021,-56.717 46.003,-102.781 102.712,-102.802c56.71,-0.021 102.768,46.009 102.789,102.726Z" style="stroke:#000;stroke-width:62.5px;"/><path d="M2707.16,653.919l0.069,-236.205" style="fill:none;stroke:#000;stroke-width:108.33px;"/><path d="M2707.18,212.107c56.71,0.013 102.74,46.071 102.727,102.787c-0.014,56.717 -46.065,102.753 -102.775,102.74c-56.709,-0.013 -102.739,-46.071 -102.726,-102.788c0.013,-56.717 46.065,-102.753 102.774,-102.739Z" style="stroke:#000;stroke-width:62.5px;"/><path d="M2173.83,212.187c56.709,0.013 102.739,46.071 102.726,102.788c-0.013,56.716 -46.065,102.753 -102.774,102.739c-56.71,-0.013 -102.74,-46.071 -102.727,-102.787c0.014,-56.717 46.065,-102.753 102.775,-102.74Z" style="stroke:#000;stroke-width:62.5px;"/><path d="M1676.23,3658.72l-0.057,236.252" style="fill:none;stroke:#000;stroke-width:108.33px;"/><path d="M1674.49,4100.62c-56.709,-0.013 -102.739,-46.071 -102.726,-102.787c0.013,-56.717 46.065,-102.753 102.774,-102.74c56.71,0.013 102.74,46.071 102.726,102.788c-0.013,56.717 -46.064,102.753 -102.774,102.739Z" style="stroke:#000;stroke-width:62.5px;"/><path d="M3676.3,997.083c-0,-193.626 -157.179,-350.825 -350.779,-350.825l-2310.25,-0c-193.601,-0 -350.779,157.199 -350.779,350.825l-0,2310.55c-0,193.625 157.178,350.825 350.779,350.825l2310.25,-0c193.6,-0 350.779,-157.2 350.779,-350.825l-0,-2310.55Zm-112.98,40.79c0,-153.775 -124.829,-278.621 -278.585,-278.621l-2228.68,-0c-153.755,-0 -278.585,124.846 -278.585,278.621l-0,2228.97c-0,153.775 124.83,278.622 278.585,278.622l2228.68,-0c153.756,-0 278.585,-124.847 278.585,-278.622l0,-2228.97Z" style="stroke:#000;stroke-width:29.17px;"/></g><path d="M2101.53,3920.96c40.384,-39.824 105.498,-39.373 145.317,1.005c39.819,40.379 39.36,105.493 -1.024,145.317c-40.384,39.824 -105.498,39.373 -145.317,-1.005c-39.818,-40.379 -39.36,-105.493 1.024,-145.317Z" style="fill:#f9d009;stroke:#f9d009;stroke-width:75px;"/><path d="M4119.34,2175.69c0.021,56.716 -46.003,102.78 -102.713,102.801c-56.709,0.021 -102.767,-46.009 -102.788,-102.725c-0.021,-56.717 46.003,-102.781 102.712,-102.802c56.71,-0.021 102.768,46.009 102.789,102.726Z" style="fill:#f9d009;stroke:#f9d009;stroke-width:62.5px;"/><path d="M3179.18,212.107c56.71,0.013 102.74,46.071 102.727,102.787c-0.014,56.717 -46.065,102.753 -102.775,102.74c-56.709,-0.013 -102.739,-46.071 -102.726,-102.788c0.013,-56.717 46.065,-102.753 102.774,-102.739Z" style="fill:#ff32a5;stroke:#ff32a5;stroke-width:62.5px;"/><path d="M3175.73,722.126l0.121,-416.842" style="fill:none;stroke:#ff32a5;stroke-width:108.33px;"/><path d="M1214.49,4100.62c-56.709,-0.013 -102.739,-46.071 -102.726,-102.787c0.013,-56.717 46.065,-102.753 102.774,-102.74c56.71,0.013 102.74,46.071 102.726,102.788c-0.013,56.717 -46.064,102.753 -102.774,102.739Z" style="fill:#ff32a5;stroke:#ff32a5;stroke-width:62.5px;"/><path d="M2613.28,3110.11l1403.31,-0" style="fill:none;stroke:#01a8df;stroke-width:108.33px;"/><path d="M1211.13,3103.69l-0.259,894.171" style="fill:none;stroke:#ff32a5;stroke-width:108.33px;"/><path d="M3175.85,1138.97l-0,-416.841" style="fill:none;stroke:#ff32a5;stroke-width:108.33px;"/><path d="M2553.49,2965.75l47.694,115.146" style="fill:none;stroke:#01a8df;stroke-width:166.67px;"/><path d="M2598.96,2174.5l1417.63,-0.446" style="fill:none;stroke:#f9d009;stroke-width:108.33px;"/><path d="M1210.89,3103.69l1864.03,-1864.03" style="fill:none;stroke:#ff32a5;stroke-width:108.33px;"/><g><path d="M2170.4,1313.88c474.964,0 860.575,385.611 860.575,860.575c0,474.965 -385.611,860.575 -860.575,860.575c-474.964,0 -860.575,-385.61 -860.575,-860.575c0,-474.964 385.611,-860.575 860.575,-860.575Zm372.337,1295.12c69.998,0 126.827,56.83 126.827,126.827c0,69.998 -56.829,126.827 -126.827,126.827c-69.997,0 -126.827,-56.829 -126.827,-126.827c0,-69.997 56.83,-126.827 126.827,-126.827Zm-731.699,-427.023c91.074,0 165.015,73.941 165.015,165.015c-0,91.074 -73.941,165.014 -165.015,165.014c-91.074,0 -165.014,-73.94 -165.014,-165.014c-0,-91.074 73.94,-165.015 165.014,-165.015Zm786.371,-119.468c86.469,0 156.671,70.202 156.671,156.672c0,86.469 -70.202,156.671 -156.671,156.671c-86.469,-0 -156.671,-70.202 -156.671,-156.671c-0,-86.47 70.202,-156.672 156.671,-156.672Zm-237.288,-201.656c55.519,0 100.594,45.075 100.594,100.595c0,55.519 -45.075,100.594 -100.594,100.594c-55.52,-0 -100.595,-45.075 -100.595,-100.594c0,-55.52 45.075,-100.595 100.595,-100.595Z"/></g><path d="M2174.05,2602.24l-0.404,1395.62" style="fill:#fff;stroke:#f9d009;stroke-width:108.33px;"/><path d="M2404.16,1910.41l771.447,-771.448" style="fill:none;stroke:#ff32a5;stroke-width:108.33px;"/><path d="M2174.05,2598.59l424.914,-424.914" style="fill:none;stroke:#f9d009;stroke-width:108.33px;"/></svg>